<?xml version="1.0" encoding="iso-8859-1"?>
<!-- Generator: Adobe Illustrator 19.0.0, SVG Export Plug-In . SVG Version: 6.00 Build 0)  -->
<svg xmlns="http://www.w3.org/2000/svg" xmlns:xlink="http://www.w3.org/1999/xlink" version="1.1" id="Layer_1" x="0px" y="0px" viewBox="0 0 511.999 511.999" style="enable-background:new 0 0 511.999 511.999;" xml:space="preserve" width="512px" height="512px">
<g>
	<g>
		<path d="M256.002,245.242c-4.602,0-8.332,3.731-8.332,8.332v82.997c0,4.602,3.731,8.332,8.332,8.332    c4.602,0,8.332-3.731,8.332-8.332v-82.997C264.334,248.972,260.604,245.242,256.002,245.242z" fill="#FFDA44"/>
	</g>
</g>
<g>
	<g>
		<path d="M206.824,32.653H40.76C18.285,32.653,0,50.932,0,73.402v59.235c0,4.602,3.731,8.332,8.332,8.332    c4.602,0,8.332-3.731,8.332-8.332V73.402c0-13.281,10.81-24.085,24.096-24.085h166.064c4.602,0,8.332-3.731,8.332-8.332    S211.426,32.653,206.824,32.653z" fill="#FFDA44"/>
	</g>
</g>
<g>
	<g>
		<path d="M471.251,32.653H305.798c-4.602,0-8.332,3.731-8.332,8.332s3.731,8.332,8.332,8.332h165.453    c13.28,0,24.085,10.805,24.085,24.085v284.413h-52.211c-4.602,0-8.332,3.731-8.332,8.332c0,4.602,3.731,8.332,8.332,8.332h52.211    v15.274c0,13.281-10.805,24.085-24.085,24.085H40.76c-13.287,0-24.096-10.805-24.096-24.085v-15.274h398.687    c4.602,0,8.332-3.731,8.332-8.332c0-4.602-3.731-8.332-8.332-8.332h-31.807c0.187-1.495,0.287-3.002,0.287-4.512    c0-20.044-16.306-36.35-36.35-36.35c-4.476,0-8.822,0.797-12.894,2.34c-8.198-15.201-24.316-25.171-42.076-25.171    c-0.069,0-0.138,0.006-0.207,0.006v-40.555c0-4.602-3.731-8.332-8.332-8.332s-8.332,3.731-8.332,8.332v69.553    c0,4.602,3.731,8.332,8.332,8.332s8.332-3.731,8.332-8.332v-12.334c0.069,0,0.138-0.006,0.207-0.006    c13.826,0,26.123,9.275,29.903,22.555c0.755,2.654,2.776,4.763,5.396,5.629c2.618,0.865,5.499,0.381,7.689-1.299    c3.459-2.654,7.603-4.056,11.983-4.056c10.855,0,19.686,8.831,19.686,19.686c0,1.543-0.176,3.049-0.518,4.512H145.351    c-0.342-1.46-0.519-2.966-0.519-4.512c0-10.855,8.836-19.686,19.697-19.686c4.373,0,8.512,1.402,11.971,4.056    c2.19,1.68,5.066,2.166,7.685,1.3c2.62-0.867,4.64-2.972,5.397-5.625c3.789-13.284,16.091-22.561,29.914-22.561    c0.067,0,0.133,0.004,0.2,0.006v12.334c0,4.602,3.731,8.332,8.332,8.332c4.602,0,8.332-3.731,8.332-8.332v-69.553    c0-4.602-3.731-8.332-8.332-8.332c-4.602,0-8.332,3.731-8.332,8.332v40.555c-0.067,0-0.133-0.006-0.2-0.006    c-17.755,0-33.876,9.971-42.081,25.172c-4.072-1.545-8.414-2.341-12.888-2.341c-20.049,0-36.361,16.306-36.361,36.35    c0,1.51,0.1,3.017,0.287,4.512H16.664V160.411c0-4.602-3.731-8.332-8.332-8.332C3.73,152.079,0,155.81,0,160.411v229.343    c0,22.47,18.285,40.749,40.76,40.749h142.783l-20.495,47.948h-40.034c-4.602,0-8.332,3.731-8.332,8.332s3.731,8.332,8.332,8.332    h265.972c4.602,0,8.332-3.731,8.332-8.332s-3.731-8.332-8.332-8.332h-40.034l-20.495-47.948H471.25    c22.469,0,40.749-18.281,40.749-40.749V73.402C512,50.932,493.719,32.653,471.251,32.653z M330.83,478.451H181.171l14.238-33.309    h121.183L330.83,478.451z" fill="#FFDA44"/>
	</g>
</g>
<g>
	<g>
		<path d="M262.924,387.558c-4.06-6.168-13.857-4.004-15.123,3.2c-0.614,3.494,1.136,7.107,4.275,8.771    c3.137,1.663,7.092,1.145,9.669-1.311C264.654,395.445,265.126,390.902,262.924,387.558z" fill="#FFDA44"/>
	</g>
</g>
<g>
	<g>
		<path d="M334.907,162.099c-6.498-10.697-14.423-17.646-19.577-21.419c1.129-6.662,1.721-13.475,1.721-20.389    c0-4.602-3.731-8.332-8.332-8.332s-8.332,3.731-8.332,8.332c0,34.219-16.495,65.647-44.387,85.092    c-27.891-19.444-44.387-50.872-44.387-85.092c0-14.568,3-28.625,8.584-41.47c10.531,7.054,22.913,10.869,35.806,10.869    c12.875,0,25.243-3.805,35.765-10.842c2.176,5.008,3.989,10.204,5.368,15.575c1.143,4.457,5.682,7.14,10.142,5.999    c4.457-1.144,7.143-5.685,5.999-10.142c-7.701-30.004-26.474-55.619-52.859-72.127c-2.704-1.691-6.135-1.691-8.839,0    c-35.46,22.186-56.631,60.368-56.631,102.138c0.003,6.916,0.596,13.728,1.724,20.389c-5.153,3.773-13.078,10.722-19.576,21.419    c-17.059,28.082-11.348,59.706-3.554,81.291c0.929,2.572,3.07,4.516,5.712,5.217c2.644,0.702,5.47,0.05,7.55-1.723    c0.272-0.231,27.654-23.185,69.196-23.185c41.544,0,68.925,22.953,69.18,23.17c1.531,1.32,3.468,2.023,5.444,2.023    c0.704,0,1.413-0.09,2.111-0.272c2.653-0.694,4.794-2.651,5.726-5.23C352.582,204.285,344.322,177.6,334.907,162.099z     M256.001,35.203c11.203,7.812,20.615,17.622,27.866,28.862c-8.081,5.812-17.763,8.962-27.861,8.962    c-10.113,0-19.808-3.158-27.896-8.988C235.323,52.875,244.731,43.06,256.001,35.203z M185.897,227.145    c-9.896-37.465,4.837-58.809,15.225-68.604c6.398,19.22,17.592,36.537,32.707,50.383    C212.207,212.627,195.664,221.021,185.897,227.145z M326.106,227.143c-9.765-6.123-26.308-14.517-47.933-18.221    c15.114-13.845,26.308-31.16,32.706-50.379C321.281,168.352,335.998,189.694,326.106,227.143z" fill="#FFDA44"/>
	</g>
</g>
<g>
	<g>
		<path d="M257.472,97.486c-15.314,0-27.774,12.459-27.774,27.774c0,15.314,12.459,27.774,27.774,27.774    s27.774-12.459,27.774-27.774C285.246,109.946,272.786,97.486,257.472,97.486z M257.472,136.369    c-6.126,0-11.109-4.984-11.109-11.109s4.984-11.109,11.109-11.109s11.109,4.984,11.109,11.109S263.598,136.369,257.472,136.369z" fill="#FFDA44"/>
	</g>
</g>
<g>
</g>
<g>
</g>
<g>
</g>
<g>
</g>
<g>
</g>
<g>
</g>
<g>
</g>
<g>
</g>
<g>
</g>
<g>
</g>
<g>
</g>
<g>
</g>
<g>
</g>
<g>
</g>
<g>
</g>
</svg>
